<?xml version="1.0" encoding="UTF-8" standalone="no"?>
<!-- Created with Inkscape (http://www.inkscape.org/) -->

<svg
   version="1.1"
   id="svg2"
   width="204"
   height="248"
   viewBox="0 0 204 248"
   sodipodi:docname="kittykat.svg"
   inkscape:version="1.2.1 (9c6d41e410, 2022-07-14)"
   xmlns:inkscape="http://www.inkscape.org/namespaces/inkscape"
   xmlns:sodipodi="http://sodipodi.sourceforge.net/DTD/sodipodi-0.dtd"
   xmlns="http://www.w3.org/2000/svg"
   xmlns:svg="http://www.w3.org/2000/svg">
  <defs
     id="defs6" />
  <sodipodi:namedview
     id="namedview4"
     pagecolor="#ffffff"
     bordercolor="#000000"
     borderopacity="0.25"
     inkscape:showpageshadow="2"
     inkscape:pageopacity="0.0"
     inkscape:pagecheckerboard="0"
     inkscape:deskcolor="#d1d1d1"
     showgrid="false"
     inkscape:zoom="3.2822581"
     inkscape:cx="102.06388"
     inkscape:cy="124.15233"
     inkscape:window-width="1920"
     inkscape:window-height="1001"
     inkscape:window-x="-9"
     inkscape:window-y="-9"
     inkscape:window-maximized="1"
     inkscape:current-layer="g8" />
  <g
     inkscape:groupmode="layer"
     inkscape:label="Image"
     id="g8">
    <path
       style="fill:none;stroke:#212121"
       d="m 103,25 c 6.595,-6.5768 16.484,-14.4887 27,-19.13812 3.043,-1.34529 6.628,-3.33307 9.985,-3.30478 6.011,0.05066 6.826,6.8417 7.804,11.4429 2.393,11.25 4.537,29.391 -0.789,39 -8.326,-12.2027 -25.785,-24.786 -44,-27.6744 -3.2192,-0.5104 -5.8579,0.0184 -9,0.3889 -11.5899,1.3668 -33.8893,7.2416 -44.8302,2.8557 -3.453,-1.3841 -5.679,-3.5634 -9.1706,-5.3217 C 36.2191,21.3448 33.0241,19.935 29,18.7215 20.0634,16.0264 6.58414,11.0404 1,20 m 136,-4 -1,15 -13,-6 14,-9 m -16,9 h 2 M 13,27 c 3.2242,0.4762 12.4729,1.6544 13.5386,5.3032 C 27.9458,37.1216 19.2868,42.6848 16,45 L 13,27 m 10,192 c -2.3017,3.412 -6.5552,8.01 -4.8287,11.981 1.5556,3.578 5.2858,5.184 8.8287,4.786 3.9059,-0.439 5.202,-3.053 8.7909,-2.666 2.5219,0.272 3.1263,2.58 5.4182,3.877 4.8661,2.752 12.8323,3.039 17.5054,5.791 3.0515,1.796 4.4175,4.915 8.2863,4.693 C 77.5803,246.855 81.084,238.127 86,231 c 3.0589,4.583 4.2035,9.91 11.0008,10.728 4.2642,0.513 5.8132,-2.141 9.4232,-4.04 5.475,-2.879 18.947,-0.246 22.124,-7.801 2.349,-5.586 -1.561,-14.566 -4.938,-18.887 -2.206,-2.822 -6.758,-5.954 -6.658,-10 0.087,-3.518 2.438,-6.751 3.532,-10 2.242,-6.661 3.423,-24.832 9.08,-28.971 5.077,-3.716 12.601,3.866 17.381,-2.128 4.851,-6.083 6.863,-15.669 9.398,-22.901 1.508,-4.302 2.922,-9.433 6.051,-12.853 12.31,-13.456 20.594,10.643 27.621,14.84 4.429,2.645 11.829,0.877 12.265,-5.991 0.376,-5.912 -5.301,-13.44 -9.334,-17.992 -9.326,-10.526 -26.471,-22.1128 -39.841,-12.301 -7.768,5.701 -9.098,20.373 -11.12,29.297 -2.044,9.023 -5.932,12.924 -12.985,17 -1.274,-4.02 -2.485,-11.061 -5.404,-14.995 -1.734,-2.337 -3.715,-5.062 -6.766,-5.503 -5.828,-0.842 -13.724,3.405 -19.83,4.209 -12.248,1.611 -24.78,2.287 -37,1.119 -4.4606,-0.426 -10.2133,-1.299 -15,-2.565 C 33.8539,128.318 23.4276,124.441 17.3634,114 14.815,109.612 12.9214,102.852 12.2894,98 11.9846,95.6607 12.0033,93.6843 12,91 11.9968,88.3599 11.8907,86.6412 12.1736,84 13.3548,72.9736 18.2637,59.0694 23.3735,49 28.3553,39.1827 38.7128,32.4853 46,30 M 0,31 C 3.17942,36.9271 2.98195,44.3746 4.73457,51 6.80362,58.8216 7.86774,64.8885 15,67 M 147,54 c 2.203,4.7317 2.856,6.4062 3.996,12 1.948,9.5564 -0.018,20.094 -3.352,30 -3.229,9.595 -8.5,18.216 -16.644,24.61 -5.327,4.182 -7.738,4.356 -12,7.39 m -5,-71 5,3 m -69,-1 -4,3 m 56,6 c -1.789,5.2865 -2.5484,7.495 -7,7.7438 -2.1492,0.1201 -7.4268,-2.9994 -6.6235,-7.7291 0.6411,-3.7743 4.6728,-5.5748 6.6227,-5.6397 C 99.004,62.2417 100.02,64.3266 102,66 l 5,-4 -5,5 m -38,2 -5,-5 c 1.0737,0.1931 2.1767,0.066 2.9375,0.7708 l 1.2878,1.4121 c 3.1909,6.3071 3.04,11.176 7.7793,11.0656 C 73.6001,77.188 81.422,71.5733 76.5617,66.419 69.4826,58.9114 66.8851,64.6841 65,66 m 43,-3 c 7.887,3.1332 4.682,10.5049 0.986,11.9414 C 104.145,76.823 103.315,73.1438 102,72 m -37,2 c -1.5278,1.2782 -2.3579,4.218 -6.9969,3.1111 C 54.449,76.2631 49.03,66.8319 59,64 m 19,24 c 4.7134,-2.5154 8.948,-2.4933 14,-1 -1.7807,3.746 -3.1592,5.6591 -6,9 l -8,-8 c -5.3366,4.5131 -11.659,4 -19,4 m -2,-5 18,2 m 19,0 18,-2 m -17,5 15,-1 m -54,6 22,-3 m 8,2 c 0.8281,6.552 1,16.401 1,23 l 12,-4 M 95,96 h 21 m -41,19 c 2.6046,4.505 6.4571,4.792 11,5 m -40,12 c -2.7353,7.514 -9.3219,14.801 -8.7724,24 0.6343,10.617 5.8843,24.18 9.4676,34 1.4571,3.993 5.5996,8.667 5.5687,12.961 -0.0337,4.681 -7.1352,8.545 -9.8735,12.039 -4.8793,6.225 -5.3361,10.531 -5.3904,17 m 91,-82 c 0,3.802 0,6.039 0,10 M 16,229 c -4.9973,-0.79 -7.26537,-3.37 -6.87963,-9 0.50372,-7.352 9.34743,-9.92 9.54633,-16.043 C 19.0206,193.061 10.5852,185.473 14.3048,173 17.3961,162.634 26.4775,157.29 36,156 m 109,8 c 6.828,5.576 10.629,8.977 9.907,18 -0.79,9.869 -6.853,15.489 -12.907,23 2.909,2.244 6.149,4.187 8.856,7.093 2.692,2.892 4.427,6.675 3.956,10.903 -0.484,4.354 -11.452,12.745 -15.827,12.342 C 134.758,234.949 133.699,232.551 131,230 M 85,169 c 0,14.98 -9e-4,35.62 0,50 3e-4,3.943 0.0448,7.768 1,11 m 56,-7 3,6"
       id="path116" />
  </g>
</svg>
