<?xml version="1.0" encoding="UTF-8"?>
<svg width="700" height="700" version="1.1" viewBox="0 0 700 700" xmlns="http://www.w3.org/2000/svg">
 <g>
  <path d="m149.51 397.71c-1.8789 5.0586-0.75391 10.34 3.0078 14.098 30.633 30.625 58.617 30.711 85.68 30.797 2.8867 0.015626 5.8008 0.035157 8.75 0.066407 14.484 44.945 27.445 75.727 42.785 81.211 1.793 0.64844 3.6133 0.97266 5.4102 0.97266 2.9805 0 5.8945-0.87109 8.5352-2.5977 31.172-20.219 38.16-72.559 33.641-107.42 97.473-45.707 189.3-99.359 209.78-180.13 4.4492-17.574 5.0195-36.102 2.4961-55.48 0.20312-1.4492-0.027344-2.8711-0.53516-4.2344-6.3633-40.883-27.785-85.93-65.293-136.39-2.6328-3.5547-7.4492-4.5781-11.297-2.4258-49.016 27.406-87.965 64.641-119.91 106.97-0.59766-0.22656-1.1406-0.54688-1.8008-0.64062l-10.375-1.5547c-33.941-5.2305-80.434-12.375-109.93 11.965-1.9922 1.6406-3.1602 4.0859-3.1875 6.6641-0.027343 2.5859 1.0859 5.0469 3.043 6.7188 5.5547 4.7852 11.562 9.5039 17.68 14.305 19.004 14.902 38.656 30.316 47.887 50.621 0.35156 0.77734 1.0547 1.2031 1.582 1.8203-19.922 39.621-36.215 80.684-50.441 120.61-34.449 4.3945-90.656 25.57-97.508 44.062zm324.8-342.41c32.539 44.996 51.379 84.953 57.301 120.88-22.746 32.91-33.34 41.195-53.559 56.75l-7.7578 6c-3.8125 2.9727-4.4961 8.4766-1.5195 12.289 1.7266 2.2031 4.3086 3.3672 6.9023 3.3672 1.8789 0 3.7773-0.59766 5.3828-1.8477l7.6719-5.9297c17.047-13.117 28.156-21.809 44.719-43.379-0.25391 9.2383-1.1289 18.293-3.3281 26.973-19.09 75.281-110.26 126.82-205.98 171.31-0.20703 0.09375-0.32813 0.27734-0.52344 0.38281-0.52734 0.29297-0.97266 0.65625-1.4219 1.0469-0.41797 0.36328-0.82031 0.70703-1.1562 1.1328-0.34766 0.44141-0.59766 0.91797-0.85547 1.4219-0.25781 0.5-0.50391 0.97266-0.66016 1.5117-0.15234 0.51953-0.19922 1.0508-0.25391 1.5977-0.058594 0.59766-0.09375 1.1758-0.027344 1.7852 0.023438 0.21875-0.050781 0.41797-0.011719 0.64062 6.3906 34.52-2.1602 81.484-23.602 96.184-3.3242-1.1602-13.246-10.871-33.906-75.965-1.1211-3.5195-4.3164-5.9492-7.9961-6.1016-5.2539-0.1875-10.398-0.22266-15.484-0.23828-24.805-0.066406-46.348-0.15234-70.82-23.207 9.4766-9.3984 53.703-28.918 86.621-31.395 0.45312-0.035156 0.82422-0.25781 1.2539-0.35547 0.66406-0.15234 1.3438-0.25391 1.9531-0.55469 0.54688-0.26953 0.96484-0.69531 1.4375-1.0664 0.41406-0.32422 0.875-0.57422 1.2266-0.97266 0.50781-0.57422 0.83203-1.2734 1.1758-1.9609 0.16406-0.32422 0.42578-0.56641 0.55078-0.91797 42.695-120.98 98.074-241.95 212.66-309.38zm-215.52 111.53c-2.707-2.1211-5.3906-4.2383-8.0234-6.3398 23.875-11.945 58.473-6.5977 86.961-2.2383l3.4023 0.51172c-12.512 18.004-23.805 36.828-34.199 56.09-11.926-19.582-31.016-34.59-48.141-48.023zM437.65 173.31c4.8359 0 8.75-3.9141 8.75-8.75v-6.5273c0-4.8359-3.9141-8.75-8.75-8.75-4.8359 0-8.75 3.9141-8.75 8.75v6.5273c0 4.8359 3.9141 8.75 8.75 8.75z"/>
 </g>
</svg>
